<svg width="185" height="176" viewBox="0 0 185 176" fill="none" xmlns="http://www.w3.org/2000/svg">
<path fill-rule="evenodd" clip-rule="evenodd" d="M56.6458 75.5246H45.8258V70.1608H35.0058V86.2522H121.566V70.1608H110.746V75.5246H99.9257V70.1608H56.6458V75.5246ZM121.566 96.9799H35.0058V150.618H121.566V96.9799ZM99.9257 59.4332H56.6458V54.0693H45.8258V59.4332H35.0058C29.0301 59.4332 24.1858 64.2361 24.1858 70.1608V150.618C24.1858 156.543 29.0301 161.346 35.0058 161.346H121.566C127.541 161.346 132.386 156.543 132.386 150.618V70.1608C132.386 64.2361 127.541 59.4332 121.566 59.4332H110.746V54.0693H99.9257V59.4332ZM62.0558 118.435H51.2358V107.707H62.0558V118.435ZM72.8758 118.435H83.6957V107.707H72.8758V118.435ZM105.336 118.435H94.5157V107.707H105.336V118.435ZM51.2358 139.89H62.0558V129.163H51.2358V139.89ZM83.6957 139.89H72.8758V129.163H83.6957V139.89Z" fill="black"/>
<ellipse rx="22.8516" ry="22.5252" transform="matrix(0.795092 0.606489 -0.594016 0.804453 31.5494 143.892)" fill="#F77830"/>
<path d="M32.9499 123.142L36.6774 126.462L28.707 125.746L32.9499 123.142Z" fill="#FFA800"/>
<path d="M127.756 67.4047L103.413 43.7037L119.589 34.1634L127.756 67.4047Z" fill="#1EAD24"/>
<path d="M130.361 66.5748L120.854 21.9525L141.6 22.3706L130.361 66.5748Z" fill="#1EAD24"/>
<path d="M133.904 73.9959L148.701 17.8143L168.97 28.0355L133.904 73.9959Z" fill="#1EAD24"/>
<path d="M140.97 70.2674L167.319 48.8965L174.472 66.4598L140.97 70.2674Z" fill="#1EAD24"/>
<path d="M103.695 159.831L118.473 57.7107L151.459 68.7408L103.695 159.831Z" fill="#E09F3E"/>
<path d="M103.328 160.275L134.396 59.4455L152.415 67.1378L103.328 160.275Z" fill="#CF9236"/>
<path d="M141.604 110.108L136.535 70.4494L159.116 74.295L141.604 110.108Z" fill="#1EAD24"/>
<rect x="117.11" y="93.7993" width="38.1882" height="73.0988" rx="19.0941" fill="#E75B5B"/>
<rect x="133.022" y="95.0931" width="38.1882" height="73.7457" rx="19.0941" fill="#D25151"/>
<path d="M144.131 90.3557L153.865 99.5109L132.967 97.6322L144.131 90.3557Z" fill="#1EAD24"/>
</svg>