<svg width="50" height="50" viewBox="0 0 50 50" fill="none" xmlns="http://www.w3.org/2000/svg">
<path d="M0 25C0 11.1929 11.1929 0 25 0C38.8071 0 50 11.1929 50 25C50 38.8071 38.8071 50 25 50C11.1929 50 0 38.8071 0 25Z" fill="white"/>
<path fill-rule="evenodd" clip-rule="evenodd" d="M25.0002 47.9166C12.3436 47.9166 2.0835 37.6564 2.0835 24.9999C2.0835 12.3434 12.3436 2.08325 25.0002 2.08325C37.6567 2.08325 47.9168 12.3434 47.9168 24.9999C47.9168 37.6564 37.6567 47.9166 25.0002 47.9166ZM25.0002 43.7499C35.3555 43.7499 43.7502 35.3553 43.7502 24.9999C43.7502 14.6446 35.3555 6.24992 25.0002 6.24992C14.6448 6.24992 6.25016 14.6446 6.25016 24.9999C6.25016 35.3553 14.6448 43.7499 25.0002 43.7499ZM31.8603 17.2769L20.8334 28.3037L16.0566 23.5269L13.1103 26.4731L20.8334 34.1963L34.8066 20.2231L31.8603 17.2769Z" fill="#1EAD24"/>
</svg>
